<?xml version="1.0" encoding="UTF-8"?>
<svg id="Calque_2" data-name="Calque 2" xmlns="http://www.w3.org/2000/svg" viewBox="0 0 525.19 100.37">
  <defs>
    <style>
      .cls-1 {
        letter-spacing: 0em;
      }

      .cls-1, .cls-2, .cls-3, .cls-4 {
        fill: #4c4f75;
      }

      .cls-5 {
        font-family: Montserrat-Regular, Montserrat;
        font-size: 84.74px;
      }

      .cls-2 {
        letter-spacing: 0em;
      }

      .cls-6 {
        fill: #fff;
      }

      .cls-3 {
        letter-spacing: .03em;
      }

      .cls-7 {
        fill: #85a17d;
      }
    </style>
  </defs>
  <g id="Calque_1-2" data-name="Calque 1">
    <g>
      <text class="cls-5" transform="translate(0 78.17)"><tspan class="cls-4" x="0" y="0">LIBA</tspan><tspan class="cls-2" x="200.15" y="0">L</tspan><tspan class="cls-3" x="250.23" y="0">A</tspan><tspan class="cls-4" x="313.86" y="0">.</tspan><tspan class="cls-6" x="331.83" y="0" xml:space="preserve">   </tspan><tspan class="cls-1" x="398.43" y="0">RG</tspan></text>
      <g>
        <path class="cls-4" d="M383.77,64.65c-4.43,4.58-10.63,7.43-17.5,7.43-13.44,0-24.34-10.9-24.34-24.34,0-9.23,5.14-17.26,12.71-21.38l.04-.02c7.21-4.65,5.82-12.65-2.53-13.06,3.13,2.07,1.75,5.92-2.19,8.84h0c-8.45,5.41-14.06,14.86-14.06,25.63,0,16.77,13.6,30.37,30.37,30.37,8.5,0,16.19-3.5,21.7-9.13-1.55-1.29-2.96-2.74-4.2-4.33Z"/>
        <path class="cls-7" d="M361.6,6.56l3.96,10.87-11.41-10.87h7.44ZM369.35,5.35l-3.08-4.32-3.08,4.32h6.16ZM367.48,17.44l10.93-10.88h-7.45l-3.48,10.88ZM357.4.52l-3.45,4.83h6.9l-3.45-4.83ZM374.77,0h0,0s0,0,0,0ZM362.88,6.56l3.63,9.94,3.18-9.94h-6.81ZM379.02,5.96h0s0,0,0,0h0ZM371.69,5.35h6.9l-3.45-4.83-3.45,4.83ZM353.53,5.96h0s0,0,0,0h0ZM357.77,0h0s0,0,0,0h0ZM365.53,0h-7.02l3.51,4.92,3.51-4.92ZM374.03,0h-7.02l3.51,4.92,3.51-4.92Z"/>
        <path class="cls-4" d="M396.64,47.75c0,5.95-1.72,11.5-4.68,16.19-.56-.47-1.1-.97-1.61-1.49-1.63-1.68-2.02-4.17-1.21-6.37.95-2.6,1.47-5.41,1.47-8.33,0-9.23-5.14-17.26-12.72-21.39l-.03-.02c-7.21-4.65-5.82-12.66,2.53-13.06-3.14,2.07-1.75,5.91,2.18,8.84h0c1.16.75,2.27,1.57,3.31,2.47,1.54,1.3,2.95,2.75,4.2,4.33,4.1,5.17,6.55,11.71,6.55,18.83Z"/>
      </g>
    </g>
  </g>
</svg>