<?xml version="1.0" encoding="UTF-8"?>
<svg id="_Слой_1" data-name="Слой_1" xmlns="http://www.w3.org/2000/svg" version="1.1" xmlns:xlink="http://www.w3.org/1999/xlink" viewBox="0 0 661 288">
  <!-- Generator: Adobe Illustrator 29.2.1, SVG Export Plug-In . SVG Version: 2.1.0 Build 116)  -->
  <defs>
    <style>
      .st0 {
        fill: #0e1c2d;
      }

      .st1 {
        fill: #263654;
        stroke: #fff;
        stroke-width: 2px;
      }

      .st1, .st2 {
        stroke-miterlimit: 10;
      }

      .st2 {
        fill: #fff;
        stroke: #000;
      }

      .st2, .st3 {
        display: none;
      }

      .st4 {
        fill: #335aa5;
      }
    </style>
  </defs>
  <path class="st2" d="M176.2,368"/>
  <path class="st2" d="M116.2,566"/>
  <g class="st3">
    <path class="st1" d="M636,164.5h-14v-8.4h37.7v8.4h-14v38h-9.8v-38h.1Z"/>
    <path class="st1" d="M665.8,156.2h9.7v17.9h18.4v-17.9h9.7v46.4h-9.7v-19.5h-18.5v19.5h-9.7v-46.4h0Z"/>
    <path class="st1" d="M713,156.2h31.7v8.3h-22v10.1h20.7v8.3h-20.7v11.4h23.3l-1,8.3h-32v-46.4Z"/>
    <path class="st1" d="M752.9,156.2h11.6l11.6,34.6,11.9-34.6h11.3v46.4h-8.9v-31l-10.6,30.9h-7.5l-10.7-30.9v30.9h-8.7v-46.3h0Z"/>
    <path class="st1" d="M808.8,156.2h31.7v8.3h-22v10.1h20.7v8.3h-20.7v11.4h23.3l-1,8.3h-32v-46.4Z"/>
  </g>
  <g>
    <path class="st0" d="M170.7,36.9l-50.5,84.7v71.7h-29v-71.7L40.9,36.9h32l32.8,55.4,33.1-55.4h32Z"/>
    <path class="st0" d="M262.6,137.4c0,32-25.7,57.6-57.6,57.6s-57.6-25.7-57.6-57.6,25.7-57.7,57.6-57.7,57.6,25.7,57.6,57.7ZM176.3,137.4c0,16.5,12.3,29.3,28.8,29.3s28.4-12.7,28.4-29.3-11.8-29.3-28.4-29.3-28.8,12.7-28.8,29.3Z"/>
    <path class="st0" d="M373.2,81.6v58.8c0,37.5-20.6,54.7-49.2,54.7s-49.2-17.2-49.2-54.7v-58.8h29v58.8c0,17.9,5.8,26.4,20.1,26.4s20.1-8.5,20.1-26.4v-58.8h29Z"/>
    <path class="st0" d="M487.1,193.3h-29v-58.8c0-17.9-5.8-26.4-20.1-26.4s-20.1,8.5-20.1,26.4v58.8h-29v-58.8c0-37.5,20.6-54.7,49.2-54.7s49.2,17.2,49.2,54.7v58.8Z"/>
    <path class="st0" d="M556.2,79.8c27.7,0,57.2,19.7,58.3,55.2.2,5.1-.2,10.1-.9,13.9h-82.9c2.7,11.2,12.5,17.9,25.5,17.9s15.6-3.6,19.2-6.5l34.6.2c-8.9,20.3-29.3,34.6-53,34.6s-57.7-25.7-57.7-57.4,24.6-57.9,56.8-57.9ZM583.4,125.6c-4.5-10.5-15.2-17.4-26.4-17.4s-21.9,6.9-26.4,17.4h52.7Z"/>
  </g>
  <path class="st4" d="M323.8,36.9c10.5,0,20.5,4.2,27.9,11.6,7.4,7.4,11.6,17.4,11.6,27.9h-7.8c0-8.4-3.3-16.5-9.3-22.4-5.9-5.9-14-9.3-22.4-9.3s-16.5,3.3-22.4,9.3c-5.9,5.9-9.3,14-9.3,22.4h-7.8c0-10.5,4.2-20.5,11.6-27.9,7.4-7.4,17.5-11.6,27.9-11.6Z"/>
  <g>
    <path class="st4" d="M388.9,253.7h10.6c0,2.7,3.4,4.6,8,4.6s7-1.9,7-4.1c0-7.1-25.2-.3-25.2-17.2s7.8-12.9,17.7-12.9,17.4,5,17.4,14h-10.6c0-2.5-3.3-4.2-7-4.2s-6.4,1.7-6.4,3.9c0,6.2,25,.4,25.2,16.6,0,9.6-7.9,13.8-18.4,13.8s-18.4-5-18.4-14.5Z"/>
    <path class="st4" d="M444.4,235.7v11.7c0,6.8,2.2,9.6,7.7,9.6v10.9c-10.9,0-18.8-6.1-18.8-20.4v-11.7h-6.3v-10.9h6.3v-17h11.1v17h7.7v10.9h-7.7Z"/>
    <path class="st4" d="M494.8,224.8v22.5c0,14.4-7.9,20.9-18.8,20.9s-18.8-6.6-18.8-20.9v-22.5h11.1v22.5c0,6.8,2.2,10.1,7.7,10.1s7.7-3.2,7.7-10.1v-22.5h11.1Z"/>
    <path class="st4" d="M521.6,268.2c-12.1,0-22-9.8-22-22s9.9-22,22-22,7.8,1.1,10.8,3.2v-19.7h11.2v38.5c0,12.2-9.8,22-22,22ZM510.7,246.2c0,6.3,4.5,11.2,10.9,11.2s11-4.9,11-11.2-4.7-11.2-11-11.2-10.9,4.9-10.9,11.2Z"/>
    <path class="st4" d="M550.4,213.6c0-3.7,2.9-6.6,6.7-6.6s6.6,2.9,6.6,6.6-2.9,6.7-6.6,6.7-6.7-2.9-6.7-6.7ZM551.5,224.8h11.1v42.7h-11.1v-42.7Z"/>
    <path class="st4" d="M612.4,246.2c0,12.2-9.8,22-22,22s-22-9.8-22-22,9.8-22,22-22,22,9.8,22,22ZM579.4,246.2c0,6.3,4.7,11.2,11,11.2s10.9-4.9,10.9-11.2-4.5-11.2-10.9-11.2-11,4.9-11,11.2Z"/>
  </g>
</svg>