<svg width="20" height="20" viewBox="0 0 20 20" fill="none" xmlns="http://www.w3.org/2000/svg">
<mask id="mask0_5488_2" style="mask-type:alpha" maskUnits="userSpaceOnUse" x="0" y="0" width="20" height="20">
<rect width="20" height="20" fill="white"/>
</mask>
<g mask="url(#mask0_5488_2)">
<path d="M16.3954 6.30906L9.99849 2.61719L3.60474 6.30875V7.38125H16.3954V6.30906Z" fill="#153C3C"/>
<path d="M2.46436 5.64945V7.38102H2.97967V6.1282C2.97967 6.07335 2.99411 6.01946 3.02154 5.97196C3.04896 5.92445 3.08841 5.88501 3.13592 5.85758L9.84373 1.98539C9.89124 1.95796 9.94513 1.94352 9.99998 1.94352C10.0548 1.94352 10.1087 1.95796 10.1562 1.98539L16.8656 5.85758C16.9131 5.88501 16.9526 5.92445 16.98 5.97196C17.0074 6.01946 17.0219 6.07335 17.0219 6.1282V7.38102H17.5372V5.64977L9.99998 1.29883L2.46436 5.64945Z" fill="#153C3C"/>
<path d="M17.0203 13.872C17.0203 13.9268 17.0059 13.9807 16.9784 14.0282C16.951 14.0757 16.9115 14.1152 16.864 14.1426L10.1547 18.0148C10.1072 18.0422 10.0533 18.0566 9.99842 18.0566C9.94356 18.0566 9.88968 18.0422 9.84217 18.0148L3.13592 14.1426C3.08841 14.1152 3.04896 14.0757 3.02154 14.0282C2.99411 13.9807 2.97967 13.9268 2.97967 13.872V12.6191H2.46436V14.3507L9.99998 18.7013L17.5356 14.3504V12.6191H17.0203V13.872Z" fill="#153C3C"/>
<path d="M3.60474 13.6916L9.99849 17.3832L16.3954 13.6913V12.6191H3.60474V13.6916Z" fill="#153C3C"/>
</g>
</svg>
