<svg width="135" height="48" viewBox="0 0 135 48" fill="none" xmlns="http://www.w3.org/2000/svg">
<path d="M39.3489 15.1418L23.9964 6.28125L8.65137 15.141V17.715H39.3489V15.1418Z" fill="#84A17D"/>
<path d="M5.91406 13.5587V17.7144H7.15081V14.7077C7.15082 14.576 7.18547 14.4467 7.2513 14.3327C7.31712 14.2187 7.4118 14.124 7.52581 14.0582L23.6246 4.76494C23.7386 4.69911 23.8679 4.66446 23.9996 4.66446C24.1312 4.66446 24.2605 4.69911 24.3746 4.76494L40.4771 14.0582C40.5911 14.124 40.6857 14.2187 40.7516 14.3327C40.8174 14.4467 40.8521 14.576 40.8521 14.7077V17.7144H42.0888V13.5594L23.9996 3.11719L5.91406 13.5587Z" fill="#84A17D"/>
<path d="M40.8483 33.2919C40.8483 33.4236 40.8137 33.5529 40.7478 33.6669C40.682 33.7809 40.5873 33.8756 40.4733 33.9414L24.3708 43.2347C24.2568 43.3005 24.1275 43.3351 23.9958 43.3351C23.8642 43.3351 23.7348 43.3005 23.6208 43.2347L7.52581 33.9414C7.4118 33.8756 7.31712 33.7809 7.2513 33.6669C7.18547 33.5529 7.15082 33.4236 7.15081 33.2919V30.2852H5.91406V34.4409L23.9996 44.8824L42.0851 34.4402V30.2852H40.8483V33.2919Z" fill="#84A17D"/>
<path d="M8.65137 32.8592L23.9964 41.7189L39.3489 32.8584V30.2852H8.65137V32.8592Z" fill="#84A17D"/>
<path d="M65.392 24.12L65.776 23.304C67.168 23.336 68.32 23.56 69.232 23.976C70.144 24.376 70.816 24.928 71.248 25.632C71.68 26.32 71.896 27.112 71.896 28.008C71.896 28.968 71.664 29.824 71.2 30.576C70.752 31.328 70.088 31.92 69.208 32.352C68.328 32.784 67.224 33 65.896 33H53.272L54.664 23.76L53.272 15H65.44C67.104 15 68.392 15.392 69.304 16.176C70.232 16.944 70.696 18.008 70.696 19.368C70.696 20.104 70.52 20.816 70.168 21.504C69.832 22.192 69.272 22.776 68.488 23.256C67.72 23.72 66.688 24.008 65.392 24.12ZM57.304 31.968L55.744 30H65.056C65.92 30 66.584 29.8 67.048 29.4C67.528 28.984 67.768 28.408 67.768 27.672C67.768 26.92 67.496 26.328 66.952 25.896C66.408 25.448 65.608 25.224 64.552 25.224H56.968V22.296H64.072C64.792 22.296 65.384 22.096 65.848 21.696C66.328 21.28 66.568 20.704 66.568 19.968C66.568 19.408 66.368 18.944 65.968 18.576C65.568 18.192 64.992 18 64.24 18H55.744L57.304 16.032L58.576 23.76L57.304 31.968ZM74.2308 19.2L76.2228 19.584L78.2388 19.2V33H74.2308V19.2ZM76.2228 17.784C75.5028 17.784 74.9108 17.6 74.4468 17.232C73.9988 16.848 73.7748 16.344 73.7748 15.72C73.7748 15.08 73.9988 14.576 74.4468 14.208C74.9108 13.824 75.5028 13.632 76.2228 13.632C76.9588 13.632 77.5508 13.824 77.9988 14.208C78.4468 14.576 78.6708 15.08 78.6708 15.72C78.6708 16.344 78.4468 16.848 77.9988 17.232C77.5508 17.6 76.9588 17.784 76.2228 17.784ZM80.662 33V30.168L90.694 21.6L93.382 22.32H80.734V19.344H94.918V22.176L84.886 30.744L82.582 30.048H94.966V33H80.662ZM97.387 19.2L99.379 19.584L101.395 19.2V33H97.387V19.2ZM99.379 17.784C98.659 17.784 98.067 17.6 97.603 17.232C97.155 16.848 96.931 16.344 96.931 15.72C96.931 15.08 97.155 14.576 97.603 14.208C98.067 13.824 98.659 13.632 99.379 13.632C100.115 13.632 100.707 13.824 101.155 14.208C101.603 14.576 101.827 15.08 101.827 15.72C101.827 16.344 101.603 16.848 101.155 17.232C100.707 17.6 100.115 17.784 99.379 17.784ZM113.394 17.184C112.274 17.184 111.466 17.408 110.97 17.856C110.474 18.288 110.226 18.992 110.226 19.968V33H106.218V20.232C106.218 18.984 106.458 17.912 106.938 17.016C107.434 16.104 108.178 15.4 109.17 14.904C110.178 14.408 111.426 14.16 112.914 14.16C113.602 14.16 114.218 14.216 114.762 14.328C115.306 14.424 115.858 14.56 116.418 14.736V17.76C115.954 17.568 115.474 17.424 114.978 17.328C114.482 17.232 113.954 17.184 113.394 17.184ZM103.362 23.4V20.376H116.13V23.4H103.362ZM121.689 37.32C120.793 37.32 119.985 37.208 119.265 36.984C118.545 36.76 117.865 36.432 117.225 36V33.12C117.897 33.552 118.537 33.864 119.145 34.056C119.753 34.248 120.425 34.344 121.161 34.344C121.817 34.344 122.401 34.192 122.913 33.888C123.425 33.6 123.849 33.08 124.185 32.328L129.872 19.344H134.121L127.305 33.624C126.889 34.52 126.385 35.24 125.793 35.784C125.201 36.328 124.553 36.72 123.849 36.96C123.161 37.2 122.441 37.32 121.689 37.32ZM122.553 32.136L116.529 19.344H120.945L126.465 32.136H122.553Z" fill="white"/>
</svg>
